<svg width="54" height="54" viewBox="0 0 54 54" fill="none" xmlns="http://www.w3.org/2000/svg">
<path d="M36.4765 1.30585L5.57218 32.209C5.39559 32.3876 5.25349 32.597 5.15289 32.8271C5.12523 32.8878 5.10331 32.9486 5.07565 33.0147C5.04798 33.081 5.00936 33.1526 4.99283 33.2299L0.577928 50.8888C0.384993 51.6453 0.606132 52.4474 1.15927 52.9981C1.71237 53.549 2.51538 53.7668 3.27097 53.5708L20.9306 49.156C21.0078 49.156 21.0741 49.0953 21.1458 49.0732L21.3333 48.996C21.5633 48.8954 21.7731 48.7533 21.9515 48.5767L52.8558 17.6735C53.2658 17.2573 53.4939 16.6958 53.4905 16.1118C53.4905 13.3995 52.7766 10.735 51.4203 8.38599C50.0642 6.03708 48.1135 4.08641 45.7646 2.73053C43.4156 1.37429 40.751 0.660386 38.0386 0.660386C37.4529 0.659847 36.8912 0.892118 36.4767 1.306L36.4765 1.30585ZM8.81714 36.1492C11.1282 36.5086 13.2646 37.5954 14.9157 39.2517C16.5671 40.9079 17.6475 43.0474 18 45.3596L5.75411 48.3948L8.81714 36.1492ZM21.8797 42.396C21.3447 40.7118 20.5234 39.1324 19.4515 37.7274C19.5494 37.6714 19.6435 37.6087 19.733 37.5399L47.2268 10.0416C48.2637 11.5881 48.8885 13.3735 49.0424 15.2289L21.8797 42.396ZM44.1088 6.92361L16.6094 34.4164C16.5406 34.5058 16.4779 34.6 16.4219 34.6979C15.0169 33.626 13.4375 32.8047 11.7531 32.2697L38.9158 5.10805C40.7734 5.26092 42.5609 5.88587 44.1088 6.92361Z" fill="white"/>
</svg>
