<svg width="60" height="60" viewBox="0 0 60 60" fill="none" xmlns="http://www.w3.org/2000/svg">
<path d="M40.3145 22.5186C39.8565 22.0607 39.24 21.8023 38.5941 21.8023C37.9482 21.8023 37.3318 22.0548 36.8738 22.5186L26.6982 32.6411L23.4395 29.3589C22.5001 28.4195 20.9559 28.4077 20.0046 29.3413C19.0476 30.2749 19.0358 31.8191 19.9753 32.782L24.9543 37.7964C25.4123 38.2544 26.0288 38.5127 26.6806 38.5127C27.3265 38.5127 27.9371 38.2603 28.3951 37.8023L40.3027 25.9652C41.2422 25.0258 41.2539 23.4816 40.3203 22.5304L40.3145 22.5186Z" fill="white"/>
<path d="M57.2721 18.7077C55.7866 15.2024 53.6611 12.0554 50.96 9.34833C48.2533 6.64744 45.1059 4.52194 41.6007 3.03626C37.972 1.49792 34.1202 0.717007 30.1509 0.717007C13.9218 0.722878 0.71698 13.9279 0.71698 30.157C0.71698 46.3861 13.9218 59.591 30.1509 59.591C46.3801 59.591 59.5849 46.3861 59.5849 30.157C59.5849 26.1878 58.8098 22.3363 57.2715 18.7073L57.2721 18.7077ZM30.1514 54.7238C16.6059 54.7238 5.58506 43.703 5.58506 30.1574C5.58506 16.6119 16.6059 5.59105 30.1514 5.59105C43.697 5.59105 54.7178 16.6119 54.7178 30.1574C54.7178 43.703 43.697 54.7238 30.1514 54.7238Z" fill="white"/>
</svg>
