<svg width="35" height="42" viewBox="0 0 35 42" fill="none" xmlns="http://www.w3.org/2000/svg">
<path d="M17.4527 26.6017C15.5458 26.6017 13.9929 28.1547 13.9929 30.0615C13.9929 30.8702 14.6453 31.5226 15.454 31.5226C16.2627 31.5226 16.9151 30.8702 16.9151 30.0615C16.9151 29.7628 17.154 29.524 17.4527 29.524C17.7514 29.524 17.9902 29.7628 17.9902 30.0615C17.9902 30.8702 18.6426 31.5226 19.4513 31.5226C20.2601 31.5226 20.9125 30.8702 20.9125 30.0615C20.9125 28.1547 19.3595 26.6017 17.4527 26.6017Z" fill="white"/>
<path d="M15.5459 21.3913C15.5459 24.0482 13.3921 26.202 10.7352 26.202C8.07823 26.202 5.92448 24.0482 5.92448 21.3913C5.92448 18.7345 8.07827 16.5806 10.7352 16.5806C13.392 16.5806 15.5459 18.7345 15.5459 21.3913Z" fill="white"/>
<path d="M28.9809 21.3913C28.9809 24.0482 26.8271 26.202 24.1702 26.202C21.5132 26.202 19.3595 24.0482 19.3595 21.3913C19.3595 18.7345 21.5133 16.5806 24.1702 16.5806C26.8271 16.5806 28.9809 18.7345 28.9809 21.3913Z" fill="white"/>
<path d="M34.787 17.5869C34.787 15.2665 34.3322 13.0197 33.4362 10.9016C32.5724 8.8523 31.3317 7.019 29.7557 5.43842C28.1797 3.86242 26.3419 2.62188 24.2972 1.75799C22.179 0.862098 19.9276 0.407104 17.6119 0.407104H17.2948C14.9744 0.407104 12.7276 0.861945 10.6094 1.75799C8.56487 2.62177 6.7269 3.86242 5.15091 5.43842C3.57491 7.01441 2.33437 8.8523 1.47049 10.897C0.574592 13.0151 0.119598 15.2666 0.119598 17.5823V17.8994C0.119598 21.5521 1.28203 25.0901 3.41862 28.017C2.82122 28.7521 2.48129 29.6757 2.48129 30.6681V30.7233C2.48129 33.039 4.36509 34.9229 6.68087 34.9229H8.17416V39.5773C8.17416 40.386 8.82658 41.0384 9.63529 41.0384H25.2849C26.0937 41.0384 26.7461 40.386 26.7461 39.5773L26.7464 34.9232H28.2397C30.5554 34.9232 32.4392 33.0394 32.4392 30.7236V30.6685C32.4392 29.6806 32.0993 28.7525 31.5019 28.0174C33.6385 25.0905 34.8009 21.548 34.8009 17.8998V17.5872L34.787 17.5869ZM31.8648 17.904C31.8648 21.35 30.6196 24.672 28.3591 27.268C28.0604 27.608 27.9409 28.0675 28.0282 28.5085C28.1156 28.9496 28.4003 29.331 28.8048 29.5333C29.2367 29.7539 29.5077 30.1903 29.5077 30.6728V30.728C29.5077 31.431 28.9334 32.0053 28.2304 32.0053H25.276C24.4673 32.0053 23.8149 32.6577 23.8149 33.4664V38.1209H21.1315V36.2693C21.1315 35.5984 20.5847 35.0516 19.9138 35.0516C19.243 35.0516 18.6962 35.5938 18.6962 36.2693V38.1209H16.2059V36.2693C16.2059 35.5984 15.6591 35.0516 14.9882 35.0516C14.3174 35.0516 13.7706 35.5984 13.7706 36.2693V38.1209H11.0874V33.4618C11.0874 32.6531 10.4349 32.0007 9.62623 32.0007H6.67182C5.96887 32.0007 5.39453 31.4264 5.39453 30.7234V30.6682C5.39453 30.1857 5.66554 29.7446 6.09748 29.5287C6.50178 29.3264 6.78669 28.9497 6.87403 28.504C6.96137 28.0629 6.83724 27.6034 6.54319 27.2635C4.28262 24.672 3.03744 21.3454 3.03744 17.8994V17.5823C3.03744 13.7733 4.52162 10.194 7.21405 7.50145C9.90657 4.80894 13.4859 3.32484 17.2949 3.32484H17.612C21.421 3.32484 25.0003 4.80901 27.6928 7.50145C30.3853 10.194 31.8694 13.7733 31.8694 17.5823V17.904L31.8648 17.904Z" fill="white"/>
</svg>
